<?xml version="1.0" encoding="iso-8859-1"?>
<!-- Generator: Adobe Illustrator 19.0.0, SVG Export Plug-In . SVG Version: 6.00 Build 0)  -->
<svg version="1.1" id="Capa_1" xmlns="http://www.w3.org/2000/svg" xmlns:xlink="http://www.w3.org/1999/xlink" x="0px" y="0px"
	 viewBox="0 0 512 512" style="enable-background:new 0 0 512 512; fill: #ba5d2c;" xml:space="preserve">
<g>
	<g>
		<path d="M340.081,145.983c-4.2,0-7.604,3.405-7.604,7.604v199.991c0,4.199,3.404,7.604,7.604,7.604c4.2,0,7.604-3.405,7.604-7.604
			V153.587C347.685,149.387,344.282,145.983,340.081,145.983z"/>
	</g>
</g>
<g>
	<g>
		<path d="M507.709,348.617l-21.61-25.11l13.423-30.289c1.189-2.685,0.727-5.814-1.189-8.041l-21.61-25.112l13.422-30.286
			c1.19-2.685,0.728-5.815-1.188-8.041l-21.61-25.108l13.423-30.29c1.189-2.685,0.727-5.815-1.189-8.041l-21.61-25.113
			l13.422-30.292c1.189-2.685,0.727-5.815-1.189-8.04l-21.61-25.113l13.422-30.295c1.189-2.685,0.727-5.815-1.188-8.04
			L436.074,2.642C434.628,0.966,432.523,0,430.308,0h-90.227c-4.2,0-7.604,3.405-7.604,7.604v120.634
			c0,4.199,3.404,7.604,7.604,7.604c4.2,0,7.604-3.405,7.604-7.604V15.208h79.135l19.336,22.473l-13.422,30.296
			c-1.189,2.685-0.727,5.815,1.189,8.04l21.61,25.113l-13.422,30.292c-1.189,2.685-0.727,5.815,1.189,8.04l21.61,25.112
			l-13.423,30.29c-1.189,2.685-0.727,5.815,1.189,8.041l21.61,25.108l-13.422,30.285c-1.19,2.685-0.728,5.815,1.188,8.041
			l21.61,25.112l-13.423,30.29c-1.189,2.685-0.727,5.815,1.189,8.041l24.747,28.754c1.504,1.748,3.629,2.643,5.767,2.643
			c1.756,0,3.522-0.605,4.958-1.84C510.09,356.601,510.448,351.8,507.709,348.617z"/>
	</g>
</g>
<g>
	<g>
		<path d="M501.783,365.448H324.872c-4.2,0-7.604,3.405-7.604,7.604v84.55c0,29.995,24.403,54.398,54.398,54.398h83.323
			c29.995,0,54.398-24.403,54.398-54.398v-84.55C509.387,368.853,505.983,365.448,501.783,365.448z M494.179,457.602
			c0,21.609-17.58,39.19-39.19,39.19h-83.323c-21.609,0-39.19-17.58-39.19-39.19v-76.946h161.703V457.602z"/>
	</g>
</g>
<g>
	<g>
		<path d="M468.325,414.115H358.33c-4.2,0-7.604,3.405-7.604,7.604v35.884c0,11.546,9.394,20.94,20.94,20.94h83.323
			c11.547,0,20.94-9.393,20.94-20.94v-35.884C475.929,417.519,472.526,414.115,468.325,414.115z M460.722,457.602
			c0,3.161-2.571,5.732-5.732,5.732h-83.323c-3.161,0-5.732-2.571-5.732-5.732v-28.28h94.788V457.602z"/>
	</g>
</g>
<g>
	<g>
		<path d="M50.67,1.65H22.09c-10.83,0-19.64,8.81-19.64,19.64v73.67c0,10.829,8.809,19.64,19.64,19.64h28.58
			c10.83,0,19.64-8.81,19.64-19.64v-73.67C70.31,10.46,61.5,1.65,50.67,1.65z M50.67,99.391H22.09c-2.443,0-4.432-1.988-4.432-4.432
			v-73.67c0-2.443,1.988-4.432,4.432-4.432h28.58c2.443,0,4.432,1.988,4.432,4.432v73.67h0.001
			C55.102,97.403,53.114,99.391,50.67,99.391z"/>
	</g>
</g>
<g>
	<g>
		<path d="M222.3,1.65H119.417c-22.419,0-40.66,18.24-40.66,40.661v31.627c0,22.421,18.24,40.661,40.66,40.661h98.21
			c4.2,0,7.604-3.405,7.604-7.604v-36.83c21.426,2.779,39.235,18.373,44.532,39.819c0.838,3.395,3.885,5.781,7.382,5.781h24.441
			c4.2,0,7.604-3.405,7.604-7.604V88.541C309.191,40.628,270.212,1.65,222.3,1.65z M293.983,100.557h-11.153
			c-9.362-27.389-35.077-46.044-64.481-46.044h-0.722c-4.2,0-7.604,3.405-7.604,7.604v37.274h-90.606
			c-14.035,0-25.452-11.418-25.452-25.453V42.31c0-14.035,11.418-25.453,25.452-25.453H222.3c39.526,0,71.683,32.157,71.683,71.683
			V100.557z"/>
	</g>
</g>
<g>
	<g>
		<path d="M190.174,399.431c4.2,0,7.604-3.405,7.604-7.604V127.273c0-4.199-3.405-7.604-7.604-7.604c-4.2,0-7.604,3.405-7.604,7.604
			v184.741h-46.183V127.273c0-4.199-3.404-7.604-7.604-7.604s-7.604,3.405-7.604,7.604v377.123c0,4.199,3.404,7.604,7.604,7.604
			h61.391c4.2,0,7.604-3.405,7.604-7.604v-87.221c0-4.199-3.404-7.604-7.604-7.604c-4.2,0-7.604,3.405-7.604,7.604v79.618h-46.183
			v-169.57h46.183v64.605C182.57,396.026,185.973,399.431,190.174,399.431z"/>
	</g>
</g>
<g>
</g>
<g>
</g>
<g>
</g>
<g>
</g>
<g>
</g>
<g>
</g>
<g>
</g>
<g>
</g>
<g>
</g>
<g>
</g>
<g>
</g>
<g>
</g>
<g>
</g>
<g>
</g>
<g>
</g>
</svg>
